<svg xmlns="http://www.w3.org/2000/svg" viewBox="0 0 16 16" xml:space="preserve"><path d="M15.1 3.9h-1.2c-.9 0-1.8-.4-2.4-1l-.6-.6L10 2H5.9c-.3 0-.5.1-.8.4l-.4.4c-.6.7-1.6 1.1-2.5 1.1H.9c-.5 0-.9.4-.9.9v7.9c0 .5.4.9.9.9H15c.5 0 .9-.4.9-.9V4.8c0-.5-.3-.9-.8-.9zM7.9 13c-2.4 0-4.4-2-4.4-4.4s2-4.4 4.4-4.4c2.4 0 4.4 2 4.4 4.4s-2 4.4-4.4 4.4z" class="st0"/><path d="M7.9 5.5c-1.7 0-3.1 1.4-3.1 3.1s1.4 3.1 3.1 3.1c1.7 0 3.1-1.4 3.1-3.1S9.6 5.5 7.9 5.5zm-.5 4.9c-.1.2-.3.2-.5.2l-.4-.1c-.6-.5-.9-1.2-.9-2 0-.7.3-1.4.9-1.8.3-.2.7-.2.9.1.2.3.2.7-.1.9-.2.2-.4.5-.4.8 0 .4.2.8.4 1 .3.2.3.6.1.9z" class="st0"/></svg>