<svg version="1.1" id="Layer_1" xmlns="http://www.w3.org/2000/svg" x="0" y="0" viewBox="0 0 16 16" xml:space="preserve"><style>.st0{fill-rule:evenodd;clip-rule:evenodd}</style><path class="st0" d="m15.9 8-.6.7c0 .1-.1.1-.2.1s-.1 0-.2-.1L8 3.1 1.1 8.8s-.1.1-.2.1-.2 0-.2-.1L.1 8a.3.3 0 0 1 0-.4l7.1-5.9c.4-.3 1.1-.3 1.5 0l2.4 2v-2c0-.2.1-.3.3-.3h1.9c.2 0 .3.1.3.3v4l2.2 1.8c.2.2.2.4.1.5z"/><path class="st0" d="M13.7 9.2V14c0 .3-.3.6-.6.6H9.3v-3.8H6.8v3.8H2.9c-.3 0-.6-.3-.6-.6V9.1L8 4.5l5.7 4.7z"/></svg>