<svg version="1.1" id="Layer_1" xmlns="http://www.w3.org/2000/svg" x="0" y="0" viewBox="0 0 64 64" xml:space="preserve"><style>.st1{fill:#fff}</style><path d="M31.7 0c17.8 0 32.1 14.3 32.1 31.9C63.8 49.7 49.4 64 31.7 64 14.1 64-.2 49.7-.2 31.9-.2 14.3 14.1 0 31.7 0zm0 10.7c-11.7 0-21.2 9.5-21.2 21.2S20 53.3 31.7 53.3s21.4-9.7 21.4-21.4-9.7-21.2-21.4-21.2z" fill="#74c0fc"/><circle class="st1" cx="15.5" cy="42.6" r="10"/><circle cx="15.5" cy="42.6" r="7.3" fill="#51cf66"/><circle class="st1" cx="16.4" cy="22.9" r="11.7"/><circle cx="16.4" cy="22.9" r="9.1" fill="#5c7cfa"/><circle class="st1" cx="33.4" cy="12.1" r="10"/><circle cx="33.4" cy="12.1" r="7.3" fill="#ff6b6b"/><circle class="st1" cx="48.8" cy="30" r="11.3"/><circle cx="48.8" cy="30" r="8.7" fill="#ff922b"/></svg>