<svg xmlns="http://www.w3.org/2000/svg" viewBox="0 0 16 16"><path d="M13.7 4.3h-1V1.4c0-.4-.2-.7-.4-1-.3-.2-.6-.4-1-.4H4.7c-.8 0-1.4.6-1.4 1.4v2.9h-1A2.3 2.3 0 0 0 0 6.6V11c0 .3.3.6.6.6h2.7v2.9c0 .8.6 1.4 1.4 1.4h6.6c.8 0 1.4-.6 1.4-1.4v-2.9h2.7c.3 0 .6-.3.6-.6V6.6a2 2 0 0 0-.7-1.6c-.4-.4-1-.7-1.6-.7zM4.5 1.4l.2-.2h6.6l.1.1.1.1v2.9h-7V1.4zm7 13.2-.1.1-.1.1H4.7a.2.2 0 0 1-.2-.2V8.2h7v6.4z"/><path d="M9.6 12.2H6.4c-.3 0-.6.3-.6.6s.3.6.6.6h3.3c.3 0 .6-.3.6-.6s-.3-.6-.7-.6zm0-2.6H6.4c-.3 0-.6.3-.6.6s.3.6.6.6h3.3c.3 0 .6-.3.6-.6s-.3-.6-.7-.6z"/></svg>