<svg xmlns="http://www.w3.org/2000/svg" xmlns:xlink="http://www.w3.org/1999/xlink" viewBox="0 0 16 16"><defs><path id="a" d="M0 0h16v16H0z"/></defs><clipPath id="b"><use xlink:href="#a" overflow="visible"/></clipPath><g clip-path="url(#b)"><path fill="none" d="M0 0h16v16H0z"/><path d="M7.9 10c1.1 0 2-.9 2-2s-.9-2-2-2-2 .9-2 2 .9 2 2 2zM3.8 3.6c.7-.6 1.5-1.1 2.4-1.3L7 0h2l.8 2.3c.9.3 1.7.7 2.4 1.3l2.4-.5 1 1.8L14 6.7c.1.4.1.9.1 1.3s-.1.9-.1 1.3l1.6 1.8-1 1.8-2.4-.5c-.7.6-1.5 1.1-2.4 1.3L9 16H7l-.8-2.3c-.9-.3-1.7-.7-2.4-1.3l-2.4.5-1-1.8L2 9.3c-.1-.4-.1-.9-.1-1.3s.1-.9.1-1.3L.4 4.9l1-1.8 2.4.5z" fill-rule="evenodd" clip-rule="evenodd"/></g></svg>